<svg width="111" height="108" viewBox="0 0 111 108" fill="none" xmlns="http://www.w3.org/2000/svg">
<g filter="url(#filter0_d_265_177)">
<path d="M51.5491 62.5133C56.2081 64.7721 61.8161 62.8263 64.0749 58.1673C66.3336 53.5083 64.3878 47.9004 59.7288 45.6416C55.0698 43.3828 49.4619 45.3286 47.2031 49.9876C44.9444 54.6466 46.8901 60.2546 51.5491 62.5133Z" stroke="#7C15B7" stroke-width="4" stroke-miterlimit="10" stroke-linecap="round" stroke-linejoin="round"/>
<g filter="url(#filter1_d_265_177)">
<path d="M86.2127 53.8531L85.8747 49.1779C85.689 46.5953 83.4441 44.6552 80.8614 44.8408L79.4413 44.9441C74.0434 45.3329 70.2464 39.7336 72.6073 34.8639L73.2289 33.5817C74.3588 31.2513 73.3863 28.4487 71.0559 27.3188L66.838 25.2739C64.5076 24.1441 61.705 25.1165 60.5751 27.4469L59.9535 28.7292C57.5926 33.5988 50.8438 34.088 47.8068 29.6072L47.0083 28.4283C45.5544 26.2856 42.6408 25.7248 40.4982 27.1787L36.6183 29.8089C34.4756 31.2628 33.9148 34.1764 35.3687 36.3191L36.1672 37.498C39.2042 41.9788 36.2533 48.0653 30.8545 48.4562L29.4343 48.5595C26.8516 48.7452 24.9115 50.9901 25.0972 53.5728L25.4353 58.2479C25.6209 60.8306 27.8658 62.7707 30.4485 62.5851L31.8687 62.4818C37.2675 62.0908 41.0635 67.6923 38.7027 72.5619L38.081 73.8442C36.9512 76.1746 37.9236 78.9772 40.254 80.107L44.4719 82.152C46.8024 83.2818 49.605 82.3094 50.7348 79.9789L51.3565 78.6967C53.7173 73.8271 60.4662 73.3379 63.5032 77.8187L64.3016 78.9976C65.7555 81.1403 68.6691 81.7011 70.8118 80.2472L74.6916 77.617C76.8343 76.1631 77.3951 73.2495 75.9412 71.1068L75.1428 69.9279C72.1058 65.4471 75.0566 59.3606 80.4555 58.9697L81.8756 58.8664C84.4583 58.6807 86.4005 56.4368 86.2127 53.8531Z" stroke="#7C15B7" stroke-width="4" stroke-miterlimit="10" stroke-linecap="round" stroke-linejoin="round" shape-rendering="crispEdges"/>
</g>
</g>
<defs>
<filter id="filter0_d_265_177" x="19.085" y="22.8027" width="73.1406" height="69.8203" filterUnits="userSpaceOnUse" color-interpolation-filters="sRGB">
<feFlood flood-opacity="0" result="BackgroundImageFix"/>
<feColorMatrix in="SourceAlpha" type="matrix" values="0 0 0 0 0 0 0 0 0 0 0 0 0 0 0 0 0 0 127 0" result="hardAlpha"/>
<feOffset dy="4"/>
<feGaussianBlur stdDeviation="2"/>
<feComposite in2="hardAlpha" operator="out"/>
<feColorMatrix type="matrix" values="0 0 0 0 0 0 0 0 0 0 0 0 0 0 0 0 0 0 0.25 0"/>
<feBlend mode="normal" in2="BackgroundImageFix" result="effect1_dropShadow_265_177"/>
<feBlend mode="normal" in="SourceGraphic" in2="effect1_dropShadow_265_177" result="shape"/>
</filter>
<filter id="filter1_d_265_177" x="0.337708" y="0.055481" width="110.635" height="107.315" filterUnits="userSpaceOnUse" color-interpolation-filters="sRGB">
<feFlood flood-opacity="0" result="BackgroundImageFix"/>
<feColorMatrix in="SourceAlpha" type="matrix" values="0 0 0 0 0 0 0 0 0 0 0 0 0 0 0 0 0 0 127 0" result="hardAlpha"/>
<feOffset/>
<feGaussianBlur stdDeviation="11.3736"/>
<feComposite in2="hardAlpha" operator="out"/>
<feColorMatrix type="matrix" values="0 0 0 0 0.740509 0 0 0 0 0.2875 0 0 0 0 1 0 0 0 1 0"/>
<feBlend mode="normal" in2="BackgroundImageFix" result="effect1_dropShadow_265_177"/>
<feBlend mode="normal" in="SourceGraphic" in2="effect1_dropShadow_265_177" result="shape"/>
</filter>
</defs>
</svg>
